<svg version="1.1" id="Layer_1" xmlns="http://www.w3.org/2000/svg" xmlns:xlink="http://www.w3.org/1999/xlink" x="0px" y="0px"
	 width="100%" viewBox="0 0 992 992" enable-background="new 0 0 992 992" xml:space="preserve">
<path fill="#000000" opacity="1.000000" stroke="none" 
	d="
M551.620972,776.407471 
	C542.039062,771.973145 532.669128,770.261963 522.644653,775.638489 
	C522.394287,771.935974 524.603638,771.139221 526.333191,770.203430 
	C533.785461,766.171143 541.654907,766.236511 549.648804,768.127869 
	C557.956604,770.093445 565.785950,773.336426 573.450989,777.045532 
	C596.207092,788.057068 619.964783,794.934937 645.504028,794.761292 
	C659.591187,794.665466 669.322021,788.122375 674.764526,775.386108 
	C678.881470,765.751831 682.266907,755.807251 686.266357,746.119812 
	C690.906555,734.880554 698.412598,726.431030 710.169006,722.042603 
	C716.801941,719.566711 717.108032,717.209412 712.304504,711.929382 
	C712.192383,711.806091 712.074097,711.688538 711.960388,711.566711 
	C705.416321,704.551636 705.453613,704.607605 697.679504,709.774353 
	C675.581604,724.460754 651.084351,731.475647 624.711731,732.259460 
	C620.760437,732.377014 616.788696,731.806946 611.367432,731.462158 
	C625.910034,743.590942 640.216919,752.479675 659.484497,748.950500 
	C658.837036,752.297974 656.763794,752.628601 654.969055,753.248413 
	C644.855042,756.741882 634.923523,755.396606 625.137390,751.930908 
	C614.983032,748.334778 605.991577,742.608582 597.409729,736.226135 
	C590.067017,730.765259 582.173584,726.775330 572.914001,725.799622 
	C560.928528,724.536621 550.202942,719.405090 539.582092,714.254150 
	C528.921753,709.084167 518.209534,707.813171 506.629730,710.708191 
	C492.958282,714.126099 484.522186,709.484558 479.263245,696.634705 
	C458.225525,735.889893 426.318634,757.699341 380.993286,755.931519 
	C358.066711,755.037292 337.638214,746.402405 320.322021,730.067200 
	C323.380310,728.240601 324.681610,729.995117 326.099487,730.904785 
	C376.427582,763.195862 440.833160,744.347290 465.345459,689.934143 
	C472.305573,674.483887 474.014954,657.958374 473.807159,641.138306 
	C473.510529,617.126770 468.046600,594.037842 461.982330,571.001953 
	C455.558502,546.600342 446.082733,523.382080 435.956116,500.338501 
	C424.503510,474.277588 426.050262,448.956421 443.080719,425.621338 
	C458.536652,404.443634 479.280151,390.747131 504.580109,383.558380 
	C536.126099,374.594818 567.907471,366.573883 599.964661,359.764282 
	C620.994385,355.297150 635.369324,343.955444 643.124390,323.858215 
	C646.911438,314.044220 649.121643,303.875793 650.894409,293.297455 
	C647.735168,297.599274 644.535400,301.872101 641.425171,306.209076 
	C635.104553,315.022614 628.146301,323.280975 620.731323,331.207336 
	C606.198547,346.742340 587.887024,353.966644 567.231140,356.305176 
	C545.607727,358.753204 523.799072,359.719055 502.756439,366.254211 
	C473.477356,375.347321 447.658630,389.648071 428.028229,413.792419 
	C414.917603,429.917786 409.683014,449.029419 407.360657,469.147461 
	C404.632690,492.778595 406.884430,516.304688 408.990173,539.861755 
	C410.412537,555.773926 411.149506,571.840027 408.128204,587.648499 
	C404.657349,605.809326 394.652405,618.944580 376.592834,624.976501 
	C356.882507,631.559875 336.954102,633.165161 316.723511,627.396606 
	C312.962891,626.324341 309.515686,624.689148 306.721283,621.980286 
	C304.231354,619.566589 302.100830,616.843079 302.669952,612.983398 
	C303.281036,612.906982 303.802612,612.727539 303.884521,612.847717 
	C310.094818,621.961426 319.795959,622.445435 329.261963,622.533447 
	C342.651489,622.658081 355.655029,620.015259 368.402344,615.781433 
	C386.277710,609.844360 394.523895,596.829956 396.644623,578.946350 
	C399.492523,554.930542 399.609009,530.793396 400.091339,506.661774 
	C400.533478,484.544678 401.156372,462.382996 406.155731,440.705841 
	C413.802094,407.551453 434.646637,384.546783 463.298248,367.767670 
	C476.708038,359.914551 491.022675,354.160583 505.828796,349.198090 
	C499.027832,349.912445 492.224792,350.607666 485.426392,351.345795 
	C475.675781,352.404480 465.888275,353.264313 456.312836,355.493317 
	C445.999756,357.893982 437.689240,363.511536 431.481659,372.033722 
	C426.088593,379.437744 421.167725,387.187164 415.734985,394.560577 
	C402.756805,412.174927 385.691193,421.902405 363.325073,421.350830 
	C341.446960,420.811310 322.154083,401.874268 321.720490,380.029114 
	C321.654572,376.709259 320.718750,374.787018 317.623810,373.571960 
	C313.131439,371.808289 308.697906,369.952606 304.022461,368.655670 
	C294.308990,365.961243 286.026093,368.494537 278.589020,374.928741 
	C275.067169,377.975616 271.481354,380.974487 267.709747,383.697571 
	C265.219330,385.495697 262.371368,386.848145 259.355133,386.770599 
	C258.468475,385.385986 258.922760,384.627930 259.703979,384.270233 
	C265.624115,381.559723 269.917572,376.925934 274.257507,372.288391 
	C283.896118,361.988922 295.485321,358.755432 309.225677,362.344696 
	C320.721100,365.347534 331.382751,370.545319 342.585449,374.305634 
	C357.368896,379.267822 370.446136,376.558411 382.070984,366.343994 
	C385.448181,363.376556 388.741272,360.312439 392.042664,357.259888 
	C395.222137,354.319977 398.451935,351.426727 401.504486,348.358673 
	C414.315308,335.482605 429.884125,328.947693 447.898163,327.774872 
	C468.231232,326.451080 482.065948,315.366791 491.929138,298.296051 
	C501.523163,281.691193 506.430939,263.286957 512.506958,245.327667 
	C514.160095,240.441330 515.934265,235.586700 517.350769,230.631165 
	C523.016785,210.808868 536.412292,200.325241 556.192505,195.442947 
	C573.170593,191.252304 589.509705,193.243088 606.097656,196.124985 
	C610.353638,196.864426 614.562744,197.993118 618.845764,198.437515 
	C636.999023,200.321030 650.070740,210.000320 661.113708,224.000916 
	C673.495422,239.698624 675.974792,256.162720 665.362610,272.955688 
	C658.503052,283.810455 656.969360,295.454987 655.302551,307.431732 
	C653.568542,319.891296 650.002625,331.764648 644.132751,342.952240 
	C635.485352,359.433563 620.331116,366.511200 603.563599,371.182251 
	C593.953491,373.859375 584.238708,376.167572 574.545349,378.536224 
	C570.153992,379.609314 566.047424,381.136139 562.121826,383.492188 
	C548.948730,391.398468 534.441650,396.592346 520.756714,403.468201 
	C507.466614,410.145691 494.633850,417.498138 484.294037,428.510651 
	C465.006836,449.052551 463.056763,479.568787 479.533142,502.432617 
	C487.352356,513.283081 497.451080,522.158447 505.477325,532.832947 
	C520.973999,553.442749 529.710022,576.381836 529.167725,602.349548 
	C528.861572,617.008484 524.261536,630.463501 515.626709,642.418335 
	C514.614319,643.819946 513.921448,645.786133 511.613434,645.675293 
	C510.084076,644.274719 511.098114,642.873901 511.625580,641.574829 
	C521.143188,618.133972 518.666809,595.030151 509.883209,572.028870 
	C503.086548,554.230652 493.158508,538.329224 480.850708,523.906921 
	C454.725250,493.293213 459.567871,445.223175 479.617676,417.697510 
	C487.296967,407.154938 498.057251,400.535248 509.587738,395.004120 
	C511.070099,394.293091 512.559021,393.595703 513.918518,392.656342 
	C485.651489,396.248657 461.801422,407.841766 445.349182,431.875854 
	C431.585815,451.981842 431.258698,473.266418 441.823151,494.847198 
	C451.113800,513.825806 461.925812,532.054626 468.813629,552.195374 
	C480.002106,584.911682 489.368530,617.914612 488.382233,652.997437 
	C488.062073,664.386108 485.994232,675.420776 482.775024,686.578857 
	C507.787842,683.870544 531.677124,688.112000 555.213684,695.466553 
	C569.597717,699.961121 582.904358,706.892883 596.480652,713.207458 
	C611.772278,720.320068 627.750793,720.228943 643.962158,718.360840 
	C644.580322,718.289551 645.154785,717.839172 645.752258,717.564209 
	C645.820679,715.407288 643.992493,714.735779 642.886414,713.654053 
	C622.638733,693.852112 612.047241,670.076599 611.496521,641.509705 
	C611.118347,621.890869 615.493469,603.234558 620.265625,584.534363 
	C625.038696,565.830750 625.885010,546.900696 625.106628,527.641113 
	C624.245911,506.343933 624.804626,484.988922 624.787842,463.659058 
	C624.786621,462.046326 624.708313,460.281799 626.382996,459.130432 
	C628.877441,459.829651 628.771057,462.175842 629.286865,463.931244 
	C635.374146,484.647644 638.992554,505.728729 637.202209,527.386658 
	C636.199951,539.511658 632.061462,551.091675 629.967041,563.035400 
	C623.888062,597.701782 621.717041,632.418640 630.309692,667.018616 
	C634.412720,683.540649 642.222229,698.386719 651.942261,712.307007 
	C654.226990,715.579041 656.375732,716.752014 660.579468,715.842712 
	C674.759888,712.775269 688.511169,708.552368 701.488586,703.008301 
	C702.300537,701.111511 701.179565,700.364685 700.537048,699.461426 
	C684.732910,677.242554 681.031006,652.164612 683.234253,625.741028 
	C685.697571,596.196960 696.647461,569.297241 708.951477,542.755798 
	C717.698547,523.887207 727.287170,505.356598 733.744812,485.493591 
	C737.617859,473.580536 738.857178,461.736389 732.192383,450.252472 
	C731.889709,449.731110 731.944275,449.002441 731.802002,448.198395 
	C734.618164,447.048157 735.523438,449.391907 736.569336,450.743744 
	C742.823608,458.828033 744.297607,468.256134 743.722534,478.128998 
	C743.167053,487.667419 740.635559,496.786469 737.521729,505.776428 
	C727.582153,534.473267 714.259094,561.709045 701.677063,589.271606 
	C693.098755,608.063660 686.792542,627.459106 688.305237,648.551575 
	C689.849976,670.090515 697.347717,688.660339 715.154236,702.085266 
	C717.535339,703.880371 719.798889,705.920593 721.771240,708.152771 
	C728.715149,716.011475 727.414551,724.980957 718.635437,730.668823 
	C717.380005,731.482239 716.081909,732.273804 714.710632,732.857117 
	C706.823669,736.212646 701.925354,742.387817 699.039307,750.125549 
	C695.552246,759.474365 692.695557,769.057434 689.253540,778.424255 
	C682.261108,797.452759 668.117310,808.651001 650.864990,809.338989 
	C637.436279,809.874512 624.363953,808.042419 611.392761,804.574951 
	C594.295410,800.004333 578.800049,792.108154 563.821106,782.950439 
	C559.996399,780.612122 555.932007,778.665710 551.620972,776.407471 
M472.982483,336.704254 
	C465.444885,340.028748 457.501038,342.196472 449.348083,342.474701 
	C436.790833,342.903229 425.349976,345.992310 415.607849,354.104645 
	C408.315979,360.176666 401.221313,366.486664 394.075256,372.732391 
	C376.935608,387.712646 358.017303,391.934753 336.748810,382.361328 
	C332.990417,380.669617 329.147339,379.166077 325.190369,377.511658 
	C324.998688,392.151581 337.117889,407.565399 352.626221,411.451141 
	C371.182037,416.100494 386.694153,409.587494 399.719849,396.406342 
	C406.209778,389.838898 410.666382,381.735992 415.389862,373.893280 
	C424.083923,359.457947 435.057343,347.825500 452.049927,343.467102 
	C460.439484,341.315247 469.017273,340.424561 477.620880,339.408478 
	C504.062500,336.285706 530.661743,335.195312 557.138123,332.637329 
	C576.980042,330.720276 596.308716,326.752289 613.629456,316.074738 
	C632.571655,304.397583 649.644043,290.692993 660.617065,270.843201 
	C667.458313,258.467896 668.648682,245.841690 659.550903,233.795456 
	C654.823730,227.536392 649.599792,221.704834 643.368652,216.854736 
	C639.104126,213.535400 634.463623,211.183319 629.081543,210.077255 
	C613.896667,206.956665 598.471558,205.776398 583.091309,204.436249 
	C570.333984,203.324661 558.480164,207.761063 546.854065,212.377304 
	C541.584167,214.469742 537.793518,218.463318 535.094543,223.488419 
	C533.113586,227.176804 531.684387,231.072617 530.354675,235.021454 
	C523.826233,254.408630 519.533691,274.543213 511.224945,293.327423 
	C503.180603,311.514038 492.516357,327.549408 472.982483,336.704254 
M501.136780,698.653931 
	C509.540802,696.955383 517.554382,693.571106 526.603882,695.141907 
	C536.271057,696.820007 545.127625,700.387207 553.946411,704.326965 
	C559.580261,706.843933 565.231628,709.330444 571.435669,710.014893 
	C547.165283,694.711243 520.925476,690.628662 492.407104,695.745361 
	C494.592682,699.771912 497.614014,698.703674 501.136780,698.653931 
M577.945740,341.069824 
	C592.783813,338.535126 605.526001,332.360474 611.575134,324.627228 
	C594.837219,334.174011 576.817078,339.120697 557.279236,342.493225 
	C564.686523,343.160858 570.901184,341.761932 577.945740,341.069824 
z"/>
<path fill="#000000" opacity="1.000000" stroke="none" 
	d="
M677.813721,420.299744 
	C673.177246,418.321442 668.764832,416.725098 664.654602,414.556244 
	C656.303833,410.149780 649.755615,403.964050 646.679626,394.699677 
	C644.976501,389.570068 641.940674,385.229279 638.769836,380.904480 
	C633.267883,373.400391 633.619141,363.305481 639.335999,356.308289 
	C640.264526,355.171783 641.123779,353.683380 642.923645,354.152161 
	C644.436951,354.546356 644.730957,356.107086 645.011230,357.329163 
	C646.492554,363.789978 648.392822,370.196442 647.409241,376.985199 
	C646.341064,384.358215 649.436279,389.425751 656.057556,392.763184 
	C661.400208,395.456116 666.672119,398.356995 671.692871,401.602692 
	C676.959595,405.007477 680.990784,409.689301 683.196350,415.682434 
	C683.802917,417.330627 685.100403,419.296387 683.671814,420.874329 
	C681.931091,422.797058 679.999451,420.919373 677.813721,420.299744 
z"/>
</svg>